<svg width="94" height="94" viewBox="0 0 94 94" fill="none" xmlns="http://www.w3.org/2000/svg">
<path d="M11.75 47C7.44166 47 3.91666 43.475 3.91666 39.1667V19.5833C3.91666 15.275 7.44166 11.75 11.75 11.75H43.0833C47.3917 11.75 50.9167 15.275 50.9167 19.5833V39.1667C50.9167 43.475 47.3917 47 43.0833 47H35.25V58.75L23.5 47H11.75ZM82.25 70.5C86.5583 70.5 90.0833 66.975 90.0833 62.6667V43.0833C90.0833 38.775 86.5583 35.25 82.25 35.25H58.75V39.1667C58.75 47.7833 51.7 54.8333 43.0833 54.8333V62.6667C43.0833 66.975 46.6083 70.5 50.9167 70.5H58.75V82.25L70.5 70.5H82.25Z" fill="#121214"/>
</svg>
