<svg width="30" height="30" viewBox="0 0 30 30" fill="none" xmlns="http://www.w3.org/2000/svg">
<path fill-rule="evenodd" clip-rule="evenodd" d="M25.0605 7.93918C25.3417 8.22047 25.4997 8.60193 25.4997 8.99968C25.4997 9.39743 25.3417 9.77889 25.0605 10.0602L13.0605 22.0602C12.7792 22.3414 12.3977 22.4994 12 22.4994C11.6023 22.4994 11.2208 22.3414 10.9395 22.0602L4.9395 16.0602C4.66626 15.7773 4.51507 15.3984 4.51849 15.0051C4.52191 14.6118 4.67966 14.2356 4.95777 13.9575C5.23588 13.6793 5.6121 13.5216 6.0054 13.5182C6.39869 13.5148 6.7776 13.6659 7.0605 13.9392L12 18.8787L22.9395 7.93918C23.2208 7.65797 23.6023 7.5 24 7.5C24.3977 7.5 24.7792 7.65797 25.0605 7.93918Z" fill="white"/>
</svg>
