<svg width="18" height="21" viewBox="0 0 18 21" fill="none" xmlns="http://www.w3.org/2000/svg">
<path d="M16.024 9.29605V4.99605C16.017 4.5445 15.9484 4.09603 15.82 3.66305C15.4919 2.51837 14.7657 1.52853 13.7723 0.87191C12.7789 0.21529 11.5837 -0.0649244 10.402 0.081764C9.22027 0.228452 8.12982 0.792397 7.32713 1.67197C6.52444 2.55154 6.0623 3.68889 6.02401 4.87905V5.12705L6.01401 5.99705V15.949H6.01001V15.99C6.01001 16.5205 5.7993 17.0292 5.42422 17.4043C5.04915 17.7793 4.54044 17.99 4.01001 17.99C3.47958 17.99 2.97087 17.7793 2.5958 17.4043C2.22072 17.0292 2.01001 16.5205 2.01001 15.99C2.01001 15.978 2.01301 15.966 2.01401 15.953H2.01001V14.01H0.0100098V16.01H0.0120096C0.0126727 17.0704 0.434525 18.087 1.18476 18.8363C1.935 19.5856 2.95217 20.0062 4.01251 20.0055C5.07284 20.0049 6.08949 19.583 6.83879 18.8328C7.58809 18.0826 8.00867 17.0654 8.00801 16.005H8.01001V15.023H8.01501V6.99705L8.02501 5.12705V4.88005C8.05351 4.09281 8.39042 3.34834 8.96301 2.80733C9.5356 2.26631 10.298 1.97213 11.0856 1.98827C11.8731 2.00442 12.6228 2.3296 13.1727 2.89363C13.7227 3.45765 14.0288 4.2153 14.025 5.00305V9.27805C13.6421 9.49473 13.3413 9.8317 13.1694 10.2367C12.9974 10.6417 12.9639 11.0921 13.074 11.5181C13.1842 11.9441 13.4317 12.3219 13.7784 12.5928C14.1251 12.8638 14.5515 13.0128 14.9914 13.0168C15.4314 13.0207 15.8604 12.8794 16.2119 12.6147C16.5634 12.3501 16.8177 11.9768 16.9355 11.5529C17.0533 11.1289 17.0279 10.678 16.8633 10.27C16.6986 9.86191 16.404 9.51958 16.025 9.29605H16.024Z" fill="#121214"/>
</svg>
