<svg xmlns="http://www.w3.org/2000/svg">

<symbol id="phone" viewBox="0 0 16 16">
    <path d="M7.18721 9.74667C8.17297 10.7467 9.36571 11.5187 10.6817 12.0086L12.4619 10.5919C12.5147 10.5556 12.5773 10.5361 12.6414 10.5361C12.7055 10.5361 12.768 10.5556 12.8208 10.5919L16.1264 12.7217C16.2519 12.7971 16.3581 12.9007 16.4367 13.0243C16.5153 13.1478 16.564 13.288 16.5791 13.4336C16.5943 13.5792 16.5753 13.7264 16.5238 13.8635C16.4722 14.0005 16.3895 14.1237 16.2822 14.2233L14.7333 15.7533C14.5115 15.9725 14.2389 16.1334 13.9398 16.2215C13.6407 16.3097 13.3244 16.3224 13.0192 16.2586C9.97437 15.6298 7.16791 14.157 4.92054 12.0086C2.72305 9.83887 1.20239 7.07807 0.543043 4.06111C0.477907 3.76061 0.491502 3.44837 0.582509 3.15467C0.673517 2.86096 0.83885 2.59575 1.06249 2.38472L2.66804 0.835832C2.7674 0.733732 2.88856 0.655432 3.02247 0.606794C3.15637 0.558156 3.29954 0.540442 3.44126 0.554978C3.58298 0.569513 3.71958 0.615921 3.84082 0.690728C3.96207 0.765534 4.06482 0.8668 4.14138 0.986943L6.34193 4.25C6.37989 4.30124 6.40038 4.36332 6.40038 4.42708C6.40038 4.49085 6.37989 4.55293 6.34193 4.60417L4.89221 6.34667C5.3954 7.63628 6.17936 8.7977 7.18721 9.74667Z"/>
</symbol>

<symbol id="arr-right" viewBox="0 0 14 10">
    <path fill-rule="evenodd" d="M0 5a.5.5 0 0 1 .5-.5h11.793L9.146 1.354a.5.5 0 0 1 .708-.708l4 4a.5.5 0 0 1 0 .708l-4 4a.5.5 0 0 1-.708-.708L12.293 5.5H.5A.5.5 0 0 1 0 5z" clip-rule="evenodd"/>
</symbol>

<symbol id="vector-right" viewBox="0 0 9 15">
    <path d="M8.37956 7.08838L1.44162 0.169625C1.21431 -0.0569268 0.84628 -0.0565459 0.619347 0.170797C0.39259 0.398111 0.393176 0.766342 0.620519 0.993069L7.14549 7.50003L0.620284 14.007C0.392971 14.2337 0.392385 14.6017 0.619113 14.829C0.732872 14.943 0.881905 15 1.03094 15C1.17959 15 1.32804 14.9434 1.44159 14.8302L8.37956 7.91164C8.48904 7.80272 8.55048 7.65448 8.55048 7.50003C8.55048 7.34557 8.48887 7.19751 8.37956 7.08838Z"/>
</symbol>

<symbol id="carrency" viewBox="0 0 13 16">
    <path d="M8.10333 10.25C10.985 10.25 13 8.15968 13 5.15484C13 2.15 10.985 0.125 8.10333 0.125H2.57292C2.34857 0.125 2.16667 0.313895 2.16667 0.546875V7.81128H0.40625C0.181898 7.81128 0 8.00018 0 8.23316V9.82812C0 10.0611 0.181898 10.25 0.40625 10.25H2.16667V11.375H0.40625C0.181898 11.375 0 11.5639 0 11.7969V13.2031C0 13.4361 0.181898 13.625 0.40625 13.625H2.16667V15.4531C2.16667 15.6861 2.34857 15.875 2.57292 15.875H4.55542C4.77977 15.875 4.96167 15.6861 4.96167 15.4531V13.625H10.4271C10.6514 13.625 10.8333 13.4361 10.8333 13.2031V11.7969C10.8333 11.5639 10.6514 11.375 10.4271 11.375H4.96167V10.25H8.10333ZM4.96167 2.54192H7.62667C9.20833 2.54192 10.1617 3.56532 10.1617 5.15484C10.1617 6.76612 9.20833 7.81128 7.58333 7.81128H4.96167V2.54192Z"/>
</symbol>

<symbol id="clock" viewBox="0 0 13 13">
    <path d="M13 6.5C13 8.22391 12.3152 9.87721 11.0962 11.0962C9.87721 12.3152 8.22391 13 6.5 13C4.77609 13 3.12279 12.3152 1.90381 11.0962C0.68482 9.87721 0 8.22391 0 6.5C0 4.77609 0.68482 3.12279 1.90381 1.90381C3.12279 0.68482 4.77609 0 6.5 0C8.22391 0 9.87721 0.68482 11.0962 1.90381C12.3152 3.12279 13 4.77609 13 6.5ZM6.5 2.84375C6.5 2.73601 6.4572 2.63267 6.38101 2.55649C6.30483 2.4803 6.20149 2.4375 6.09375 2.4375C5.98601 2.4375 5.88267 2.4803 5.80649 2.55649C5.7303 2.63267 5.6875 2.73601 5.6875 2.84375V7.3125C5.68752 7.38411 5.70647 7.45444 5.74243 7.51636C5.77839 7.57829 5.83007 7.62961 5.89225 7.66512L8.736 9.29012C8.82932 9.34056 8.93867 9.35249 9.04068 9.32337C9.14268 9.29425 9.22925 9.22639 9.28188 9.13429C9.33451 9.04218 9.34902 8.93315 9.32233 8.83048C9.29563 8.72782 9.22983 8.63967 9.139 8.58488L6.5 7.07688V2.84375Z"/>
</symbol>

<symbol id="dot" viewBox="0 0 13 15">
   <path d="M6.49998 0.416687C3.37552 0.416687 0.83331 2.9589 0.83331 6.07981C0.812768 10.645 6.28464 14.4304 6.49998 14.5834C6.49998 14.5834 12.1872 10.645 12.1666 6.08335C12.1666 2.9589 9.62444 0.416687 6.49998 0.416687ZM6.49998 8.91669C4.93456 8.91669 3.66664 7.64877 3.66664 6.08335C3.66664 4.51794 4.93456 3.25002 6.49998 3.25002C8.06539 3.25002 9.33331 4.51794 9.33331 6.08335C9.33331 7.64877 8.06539 8.91669 6.49998 8.91669Z"/>
</symbol>

<symbol id="star" viewBox="0 0 15 14">
    <path d="M14.0759 4.86204L9.86075 4.24944L7.97647 0.429425C7.92501 0.324835 7.84034 0.240167 7.73575 0.188702C7.47344 0.0592102 7.15469 0.16712 7.02354 0.429425L5.13927 4.24944L0.924129 4.86204C0.807918 4.87864 0.701668 4.93343 0.620321 5.01644C0.521976 5.11752 0.467783 5.25351 0.469651 5.39452C0.471519 5.53554 0.529294 5.67005 0.630282 5.76849L3.67999 8.74183L2.95948 12.9404C2.94258 13.038 2.95339 13.1385 2.99068 13.2303C3.02796 13.3222 3.09024 13.4017 3.17043 13.46C3.25063 13.5182 3.34554 13.5528 3.44441 13.5599C3.54328 13.5669 3.64214 13.5461 3.72979 13.4998L7.50001 11.5176L11.2702 13.4998C11.3732 13.5546 11.4927 13.5729 11.6072 13.553C11.8961 13.5032 12.0903 13.2292 12.0405 12.9404L11.32 8.74183L14.3697 5.76849C14.4527 5.68714 14.5075 5.58089 14.5241 5.46468C14.569 5.17415 14.3664 4.90521 14.0759 4.86204Z"/>
</symbol>

<symbol id="route" viewBox="0 0 18 21">
<path d="M16.024 9.29605V4.99605C16.017 4.5445 15.9484 4.09603 15.82 3.66305C15.4919 2.51837 14.7657 1.52853 13.7723 0.87191C12.7789 0.21529 11.5837 -0.0649244 10.402 0.081764C9.22027 0.228452 8.12982 0.792397 7.32713 1.67197C6.52444 2.55154 6.0623 3.68889 6.02401 4.87905V5.12705L6.01401 5.99705V15.949H6.01001V15.99C6.01001 16.5205 5.7993 17.0292 5.42422 17.4043C5.04915 17.7793 4.54044 17.99 4.01001 17.99C3.47958 17.99 2.97087 17.7793 2.5958 17.4043C2.22072 17.0292 2.01001 16.5205 2.01001 15.99C2.01001 15.978 2.01301 15.966 2.01401 15.953H2.01001V14.01H0.0100098V16.01H0.0120096C0.0126727 17.0704 0.434525 18.087 1.18476 18.8363C1.935 19.5856 2.95217 20.0062 4.01251 20.0055C5.07284 20.0049 6.08949 19.583 6.83879 18.8328C7.58809 18.0826 8.00867 17.0654 8.00801 16.005H8.01001V15.023H8.01501V6.99705L8.02501 5.12705V4.88005C8.05351 4.09281 8.39042 3.34834 8.96301 2.80733C9.5356 2.26631 10.298 1.97213 11.0856 1.98827C11.8731 2.00442 12.6228 2.3296 13.1727 2.89363C13.7227 3.45765 14.0288 4.2153 14.025 5.00305V9.27805C13.6421 9.49473 13.3413 9.8317 13.1694 10.2367C12.9974 10.6417 12.9639 11.0921 13.074 11.5181C13.1842 11.9441 13.4317 12.3219 13.7784 12.5928C14.1251 12.8638 14.5515 13.0128 14.9914 13.0168C15.4314 13.0207 15.8604 12.8794 16.2119 12.6147C16.5634 12.3501 16.8177 11.9768 16.9355 11.5529C17.0533 11.1289 17.0279 10.678 16.8633 10.27C16.6986 9.86191 16.404 9.51958 16.025 9.29605H16.024Z"/>
</symbol>

<symbol id="check" viewBox="0 0 30 30">
<path fill-rule="evenodd" clip-rule="evenodd" d="M25.0605 7.93918C25.3417 8.22047 25.4997 8.60193 25.4997 8.99968C25.4997 9.39743 25.3417 9.77889 25.0605 10.0602L13.0605 22.0602C12.7792 22.3414 12.3977 22.4994 12 22.4994C11.6023 22.4994 11.2208 22.3414 10.9395 22.0602L4.9395 16.0602C4.66626 15.7773 4.51507 15.3984 4.51849 15.0051C4.52191 14.6118 4.67966 14.2356 4.95777 13.9575C5.23588 13.6793 5.6121 13.5216 6.0054 13.5182C6.39869 13.5148 6.7776 13.6659 7.0605 13.9392L12 18.8787L22.9395 7.93918C23.2208 7.65797 23.6023 7.5 24 7.5C24.3977 7.5 24.7792 7.65797 25.0605 7.93918Z"/>
</symbol>

<symbol id="chat" viewBox="0 0 94 94">
<path d="M11.75 47C7.44166 47 3.91666 43.475 3.91666 39.1667V19.5833C3.91666 15.275 7.44166 11.75 11.75 11.75H43.0833C47.3917 11.75 50.9167 15.275 50.9167 19.5833V39.1667C50.9167 43.475 47.3917 47 43.0833 47H35.25V58.75L23.5 47H11.75ZM82.25 70.5C86.5583 70.5 90.0833 66.975 90.0833 62.6667V43.0833C90.0833 38.775 86.5583 35.25 82.25 35.25H58.75V39.1667C58.75 47.7833 51.7 54.8333 43.0833 54.8333V62.6667C43.0833 66.975 46.6083 70.5 50.9167 70.5H58.75V82.25L70.5 70.5H82.25Z"/>
</symbol>

<symbol id="contact-home" viewBox="0 0 23 23">
<path d="M22.4259 9.95899C22.4252 9.95846 22.4247 9.95776 22.4241 9.95723L13.0419 0.575387C12.642 0.175301 12.1103 -0.0449219 11.5448 -0.0449219C10.9792 -0.0449219 10.4475 0.175301 10.0474 0.575387L0.670145 9.9525C0.666986 9.95565 0.663652 9.95899 0.660669 9.96215C-0.16056 10.7881 -0.159156 12.1282 0.664705 12.9521C1.0411 13.3287 1.53805 13.5466 2.06957 13.5696C2.09133 13.5717 2.11309 13.5728 2.13502 13.5728H2.50879V20.477C2.50879 21.8435 3.62061 22.9551 4.98704 22.9551H8.65766C9.02984 22.9551 9.33148 22.6533 9.33148 22.2813V16.8682C9.33148 16.2447 9.83879 15.7376 10.4623 15.7376H12.6273C13.2508 15.7376 13.7579 16.2447 13.7579 16.8682V22.2813C13.7579 22.6533 14.0595 22.9551 14.4317 22.9551H18.1023C19.4689 22.9551 20.5806 21.8435 20.5806 20.477V13.5728H20.9273C21.4927 13.5728 22.0244 13.3525 22.4247 12.9523C23.2494 12.1272 23.2497 10.7846 22.4259 9.95899V9.95899ZM21.4716 11.9994C21.3262 12.1449 21.1328 12.2251 20.9273 12.2251H19.9067C19.5346 12.2251 19.2329 12.5267 19.2329 12.8989V20.477C19.2329 21.1003 18.7258 21.6075 18.1023 21.6075H15.1055V16.8682C15.1055 15.5018 13.9939 14.3899 12.6273 14.3899H10.4623C9.09564 14.3899 7.98383 15.5018 7.98383 16.8682V21.6075H4.98704C4.36375 21.6075 3.85645 21.1003 3.85645 20.477V12.8989C3.85645 12.5267 3.5548 12.2251 3.18262 12.2251H2.17959C2.16906 12.2244 2.15871 12.2239 2.14801 12.2237C1.94726 12.2202 1.75898 12.1405 1.61789 11.9993C1.31783 11.6992 1.31783 11.2108 1.61789 10.9106C1.61807 10.9106 1.61807 10.9104 1.61824 10.9102L1.61877 10.9097L11.0006 1.52822C11.1459 1.38275 11.3391 1.30274 11.5448 1.30274C11.7503 1.30274 11.9435 1.38275 12.0889 1.52822L21.4687 10.9078C21.4701 10.9092 21.4716 10.9106 21.473 10.912C21.7715 11.2126 21.771 11.6999 21.4716 11.9994V11.9994Z"/>
</symbol>

<symbol id="contact-phone" viewBox="0 0 23 23">
<path d="M16.5304 23C15.788 23 15.0519 22.8687 14.332 22.6072C11.1607 21.4552 8.21713 19.5789 5.8193 17.1811C3.42147 14.7833 1.54516 11.8397 0.393188 8.6684C0.0230024 7.64925 -0.0862431 6.59723 0.0685962 5.54143C0.213643 4.55247 0.596721 3.59239 1.17646 2.76496C1.75876 1.9339 2.53507 1.24267 3.42143 0.766021C4.36663 0.257751 5.39831 0 6.48789 0C6.82677 0 7.11965 0.236774 7.19067 0.568104L8.31879 5.83269C8.36986 6.07108 8.2966 6.31913 8.12424 6.49153L6.19659 8.41914C8.01504 12.0346 10.9657 14.9853 14.5812 16.8037L16.5088 14.8761C16.6812 14.7037 16.9293 14.6305 17.1676 14.6815L22.4322 15.8097C22.7636 15.8807 23.0003 16.1735 23.0003 16.5124C23.0003 17.602 22.7426 18.6337 22.2343 19.5789C21.7576 20.4653 21.0664 21.2416 20.2353 21.8239C19.4079 22.4036 18.4479 22.7867 17.4588 22.9318C17.1489 22.9773 16.8391 23 16.5304 23ZM5.91364 1.46889C4.47642 1.62754 3.20078 2.38085 2.35368 3.58987C1.4011 4.94938 1.17897 6.62153 1.74425 8.17765C3.95899 14.2745 8.72594 19.0414 14.8228 21.2562C16.3788 21.8214 18.051 21.5993 19.4105 20.6467C20.6196 19.7996 21.3729 18.524 21.5315 17.0868L17.2488 16.1691L15.2357 18.1822C15.0214 18.3964 14.696 18.4533 14.4218 18.3245C10.1459 16.3157 6.68473 12.8545 4.67591 8.57856C4.54712 8.30441 4.60399 7.97892 4.81822 7.76474L6.83135 5.75161L5.91364 1.46889Z"/>
</symbol>

<symbol id="contact-mail" viewBox="0 0 25 25">
<path d="M22.8027 2.97852H2.19727C0.987207 2.97852 0 3.96465 0 5.17578V19.8242C0 21.0312 0.982813 22.0215 2.19727 22.0215H22.8027C24.0098 22.0215 25 21.0387 25 19.8242V5.17578C25 3.96875 24.0172 2.97852 22.8027 2.97852ZM22.4993 4.44336L12.5466 14.3961L2.50776 4.44336H22.4993ZM1.46484 19.5209V5.47212L8.51948 12.4663L1.46484 19.5209ZM2.50063 20.5566L9.55972 13.4976L12.0332 15.9498C12.3195 16.2337 12.7816 16.2328 13.0667 15.9476L15.4785 13.5358L22.4994 20.5566H2.50063ZM23.5352 19.5208L16.5143 12.5L23.5352 5.4791V19.5208Z"/>
</symbol>

<symbol id="contact-clock" viewBox="0 0 30 29">
<path d="M15 26.5832C21.9036 26.5832 27.5 21.1733 27.5 14.4998C27.5 7.8264 21.9036 2.4165 15 2.4165C8.09644 2.4165 2.5 7.8264 2.5 14.4998C2.5 21.1733 8.09644 26.5832 15 26.5832Z" stroke-width="2" stroke-linecap="round" stroke-linejoin="round"/>
<path d="M18.75 19.3333L15.7325 16.4164C15.2636 15.9633 15.0001 15.3487 15 14.7078V7.25" stroke-width="2" stroke-linecap="round" stroke-linejoin="round"/>
</symbol>

<symbol id="whatsap" viewBox="0 0 41 41">
<circle cx="20.5" cy="20.5" r="20.5" fill="#121214"/>
<path d="M27.9479 22.8284C27.5797 22.6392 25.7453 21.7406 25.4041 21.619C25.0629 21.4906 24.8129 21.4298 24.5662 21.8082C24.3163 22.1832 23.6068 23.0176 23.3838 23.271C23.1676 23.521 22.948 23.5514 22.5798 23.3656C20.3907 22.271 18.9549 21.4129 17.5124 18.9366C17.1306 18.2778 17.8941 18.3251 18.6069 16.9029C18.7286 16.6529 18.6677 16.4401 18.5732 16.2509C18.4786 16.0617 17.7353 14.2306 17.4245 13.484C17.1239 12.7577 16.8131 12.8591 16.5867 12.8455C16.3705 12.832 16.1239 12.832 15.8739 12.832C15.6239 12.832 15.2219 12.9266 14.8807 13.2949C14.5395 13.6698 13.5767 14.5719 13.5767 16.4029C13.5767 18.2339 14.9111 20.0075 15.0935 20.2575C15.2827 20.5075 17.7184 24.2642 21.4582 25.8824C23.823 26.9026 24.7487 26.9905 25.9311 26.8148C26.6507 26.7067 28.1337 25.9162 28.4411 25.0412C28.7486 24.1696 28.7486 23.423 28.6574 23.2676C28.5661 23.1021 28.3162 23.0075 27.9479 22.8284Z"/>
<path d="M35.0998 13.9947C34.3363 12.1805 33.2417 10.5522 31.8465 9.15356C30.4512 7.75832 28.8229 6.66037 27.0054 5.90026C25.1473 5.11987 23.1744 4.72461 21.1406 4.72461H21.0731C19.0258 4.73474 17.0428 5.14014 15.1779 5.93742C13.3773 6.70767 11.7625 7.80224 10.3808 9.19747C8.99904 10.5927 7.91461 12.2143 7.16462 14.0217C6.38762 15.8933 5.99573 17.8831 6.00587 19.9303C6.016 22.2749 6.5768 24.6025 7.62745 26.6835V31.8185C7.62745 32.6766 8.32338 33.3726 9.18147 33.3726H14.3199C16.4009 34.4232 18.7285 34.984 21.0731 34.9941H21.144C23.1676 34.9941 25.1304 34.6023 26.9783 33.8354C28.7857 33.082 30.4107 32.001 31.8025 30.6192C33.1978 29.2375 34.2957 27.6227 35.0626 25.8221C35.8599 23.9572 36.2653 21.9742 36.2754 19.9269C36.2855 17.8696 35.8869 15.873 35.0998 13.9947ZM29.9951 28.7916C27.627 31.1361 24.4851 32.4266 21.1406 32.4266H21.0832C19.0461 32.4165 17.0225 31.9098 15.2354 30.9571L14.9516 30.8051H10.195V26.0484L10.0429 25.7646C9.09025 23.9775 8.58351 21.9539 8.57337 19.9168C8.55986 16.5486 9.84699 13.3866 12.2084 11.0049C14.5665 8.62316 17.7184 7.30563 21.0866 7.29211H21.144C22.8332 7.29211 24.4716 7.61981 26.0155 8.26844C27.5222 8.90018 28.8736 9.80894 30.0357 10.9711C31.1944 12.1298 32.1066 13.4845 32.7383 14.9913C33.3937 16.552 33.7214 18.2074 33.7147 19.9168C33.6944 23.2816 32.3735 26.4335 29.9951 28.7916Z"/>
</symbol>

<symbol id="instagram" viewBox="0 0 41 41">
<path d="M20.529 26.3142C23.8798 26.3142 26.5961 23.6819 26.5961 20.4349C26.5961 17.1879 23.8798 14.5557 20.529 14.5557C17.1782 14.5557 14.4618 17.1879 14.4618 20.4349C14.4618 23.6819 17.1782 26.3142 20.529 26.3142Z"/>
<path d="M29.9197 20.763C29.9197 25.7883 25.7153 29.8615 20.529 29.8615C15.3426 29.8615 11.1382 25.7883 11.1382 20.763C11.1382 19.8625 11.2741 18.9926 11.5257 18.1709H8.75073V30.9331C8.75073 31.5942 9.29097 32.134 9.95158 32.134H30.9901C31.6512 32.134 32.1918 31.5942 32.1918 30.9331V18.1709H29.5322C29.7834 18.9926 29.9197 19.8625 29.9197 20.763Z"/>
<path d="M27.4027 14.7267H30.8174C31.5656 14.7267 32.1772 14.1152 32.1772 13.3669V10.1112C32.1772 9.36252 31.5656 8.75098 30.8174 8.75098H27.4027C26.654 8.75098 26.0425 9.36252 26.0425 10.1112V13.3669C26.0421 14.1147 26.654 14.7267 27.4027 14.7267Z"/>
<path d="M20.5 0C9.17813 0 0 9.17813 0 20.5C0 31.8219 9.17813 41 20.5 41C31.8219 41 41 31.8219 41 20.5C41 9.17813 31.8219 0 20.5 0ZM31.7283 35.6065H9.27208C7.1384 35.6065 5.39396 34.0273 5.39396 31.7292V9.27166C5.39396 6.97273 7.1384 5.39396 9.27208 5.39396H31.7283C33.8616 5.39396 35.6065 6.97273 35.6065 9.27166V31.7292C35.6065 34.0273 33.8612 35.6065 31.7283 35.6065Z"/>
</symbol>

<symbol id="exclamation-point" viewBox="0 0 29 29">
<path d="M14.5 0.0625C6.52715 0.0625 0.0625 6.52715 0.0625 14.5C0.0625 22.4729 6.52715 28.9375 14.5 28.9375C22.4729 28.9375 28.9375 22.4729 28.9375 14.5C28.9375 6.52715 22.4729 0.0625 14.5 0.0625ZM15.5312 21.4609C15.5312 21.6027 15.4152 21.7188 15.2734 21.7188H13.7266C13.5848 21.7188 13.4688 21.6027 13.4688 21.4609V12.6953C13.4688 12.5535 13.5848 12.4375 13.7266 12.4375H15.2734C15.4152 12.4375 15.5312 12.5535 15.5312 12.6953V21.4609ZM14.5 10.375C14.0952 10.3667 13.7098 10.2001 13.4264 9.91094C13.1431 9.62174 12.9844 9.233 12.9844 8.82812C12.9844 8.42325 13.1431 8.03451 13.4264 7.74531C13.7098 7.45612 14.0952 7.28951 14.5 7.28125C14.9048 7.28951 15.2902 7.45612 15.5736 7.74531C15.8569 8.03451 16.0156 8.42325 16.0156 8.82812C16.0156 9.233 15.8569 9.62174 15.5736 9.91094C15.2902 10.2001 14.9048 10.3667 14.5 10.375Z"/>
</symbol>

<symbol id="calendar" viewBox="0 0 22 22">
<path d="M15.125 8.9375C15.125 8.75516 15.1974 8.5803 15.3264 8.45136C15.4553 8.32243 15.6302 8.25 15.8125 8.25H17.1875C17.3698 8.25 17.5447 8.32243 17.6736 8.45136C17.8026 8.5803 17.875 8.75516 17.875 8.9375V10.3125C17.875 10.4948 17.8026 10.6697 17.6736 10.7986C17.5447 10.9276 17.3698 11 17.1875 11H15.8125C15.6302 11 15.4553 10.9276 15.3264 10.7986C15.1974 10.6697 15.125 10.4948 15.125 10.3125V8.9375Z"/>
<path d="M4.8125 0C4.99484 0 5.1697 0.0724328 5.29864 0.201364C5.42757 0.330295 5.5 0.505164 5.5 0.6875V1.375H16.5V0.6875C16.5 0.505164 16.5724 0.330295 16.7014 0.201364C16.8303 0.0724328 17.0052 0 17.1875 0C17.3698 0 17.5447 0.0724328 17.6736 0.201364C17.8026 0.330295 17.875 0.505164 17.875 0.6875V1.375H19.25C19.9793 1.375 20.6788 1.66473 21.1945 2.18046C21.7103 2.69618 22 3.39565 22 4.125V19.25C22 19.9793 21.7103 20.6788 21.1945 21.1945C20.6788 21.7103 19.9793 22 19.25 22H2.75C2.02065 22 1.32118 21.7103 0.805456 21.1945C0.289731 20.6788 0 19.9793 0 19.25V4.125C0 3.39565 0.289731 2.69618 0.805456 2.18046C1.32118 1.66473 2.02065 1.375 2.75 1.375H4.125V0.6875C4.125 0.505164 4.19743 0.330295 4.32636 0.201364C4.4553 0.0724328 4.63016 0 4.8125 0V0ZM1.375 5.5V19.25C1.375 19.6147 1.51987 19.9644 1.77773 20.2223C2.03559 20.4801 2.38533 20.625 2.75 20.625H19.25C19.6147 20.625 19.9644 20.4801 20.2223 20.2223C20.4801 19.9644 20.625 19.6147 20.625 19.25V5.5H1.375Z"/>
</symbol>

<symbol id="user" viewBox="0 0 20 20">
<path d="M3.75 18.75H16.25V15.625C16.2487 14.4651 15.7873 13.3531 14.9671 12.5329C14.1469 11.7127 13.0349 11.2513 11.875 11.25H8.125C6.96508 11.2513 5.85305 11.7127 5.03287 12.5329C4.21268 13.3531 3.75132 14.4651 3.75 15.625V18.75Z"/>
<path d="M5.625 5.625C5.625 6.49029 5.88159 7.33615 6.36232 8.05562C6.84305 8.77508 7.52633 9.33584 8.32576 9.66697C9.12519 9.99811 10.0049 10.0847 10.8535 9.91594C11.7022 9.74712 12.4817 9.33045 13.0936 8.71859C13.7054 8.10674 14.1221 7.32719 14.2909 6.47852C14.4597 5.62985 14.3731 4.75019 14.042 3.95076C13.7108 3.15133 13.1501 2.46805 12.4306 1.98732C11.7112 1.50659 10.8653 1.25 10 1.25C8.83968 1.25 7.72688 1.71094 6.90641 2.53141C6.08594 3.35188 5.625 4.46468 5.625 5.625Z"/>
</symbol>


</svg>